<svg width="57" height="57" viewBox="0 0 57 57" fill="none" xmlns="http://www.w3.org/2000/svg">
<rect y="0.260864" width="56.4782" height="56.4782" rx="28.2391" fill="url(#paint0_linear_1_304)"/>
<path d="M39.8616 22.5444C40.7756 22.5444 41.6494 22.9365 42.2581 23.6196C42.8657 24.304 43.1534 25.2185 43.0461 26.1274L41.3684 40.1401C41.1772 41.7516 39.8086 42.9692 38.1838 42.9692H34.5139V33.73H31.803L28.7551 40.3403L25.7209 33.73H23.01V42.9692H19.5276C17.9028 42.9692 16.5342 41.7517 16.343 40.1382L14.6643 26.1294C14.5571 25.2183 14.8456 24.3039 15.4534 23.6206C16.062 22.9366 16.935 22.5445 17.8499 22.5444H39.8616ZM31.8303 42.9692H30.0413L31.8303 39.2671V42.9692ZM27.4827 42.9692H25.6936V39.2671L27.4827 42.9692Z" fill="#CDFF65"/>
<path d="M34.7758 28.8197C34.1978 28.8197 33.7299 28.3519 33.7299 27.7739V20.9602C33.7299 18.2934 31.5595 16.1229 28.8927 16.1229C26.2258 16.1229 24.0554 18.2934 24.0554 20.9602V27.7737C24.0554 28.3518 23.5876 28.8196 23.0095 28.8196C22.4315 28.8196 21.9636 28.3518 21.9636 27.7737V20.9602C21.9636 17.1392 25.0717 14.0311 28.8927 14.0311C32.7136 14.0311 35.8217 17.1392 35.8217 20.9602V27.7737C35.8217 28.3519 35.3539 28.8197 34.7758 28.8197Z" fill="#EBF3EA"/>
<defs>
<linearGradient id="paint0_linear_1_304" x1="28.2391" y1="0.260864" x2="47.7893" y2="68.1434" gradientUnits="userSpaceOnUse">
<stop stop-color="#161919"/>
<stop offset="1" stop-color="#5B5C7A"/>
</linearGradient>
</defs>
</svg>
