<svg width="27" height="27" viewBox="0 0 27 27" fill="none" xmlns="http://www.w3.org/2000/svg">
<path d="M13.5 0.989868C10.9288 0.989868 8.41543 1.7523 6.27759 3.18076C4.13975 4.60922 2.47351 6.63954 1.48957 9.01498C0.505633 11.3904 0.248189 14.0043 0.749797 16.526C1.25141 19.0478 2.48953 21.3642 4.30762 23.1823C6.1257 25.0003 8.44208 26.2385 10.9638 26.7401C13.4856 27.2417 16.0995 26.9842 18.4749 26.0003C20.8503 25.0164 22.8807 23.3501 24.3091 21.2123C25.7376 19.0744 26.5 16.561 26.5 13.9899C26.4964 10.5432 25.1256 7.23868 22.6884 4.8015C20.2512 2.36432 16.9467 0.993508 13.5 0.989868ZM13.5 24.9899C11.3244 24.9899 9.19767 24.3447 7.38873 23.136C5.57979 21.9273 4.16989 20.2094 3.33733 18.1994C2.50477 16.1894 2.28693 13.9777 2.71137 11.8439C3.13581 9.71008 4.18345 7.75007 5.72183 6.21169C7.26021 4.67332 9.22022 3.62567 11.354 3.20123C13.4878 2.77679 15.6995 2.99463 17.7095 3.82719C19.7195 4.65976 21.4375 6.06965 22.6462 7.8786C23.8549 9.68754 24.5 11.8143 24.5 13.9899C24.4967 16.9062 23.3367 19.7022 21.2745 21.7644C19.2123 23.8266 16.4164 24.9866 13.5 24.9899ZM19.5 13.9899C19.5 14.2551 19.3946 14.5094 19.2071 14.697C19.0196 14.8845 18.7652 14.9899 18.5 14.9899H14.5V18.9899C14.5 19.2551 14.3946 19.5094 14.2071 19.697C14.0196 19.8845 13.7652 19.9899 13.5 19.9899C13.2348 19.9899 12.9804 19.8845 12.7929 19.697C12.6054 19.5094 12.5 19.2551 12.5 18.9899V14.9899H8.50001C8.23479 14.9899 7.98044 14.8845 7.7929 14.697C7.60536 14.5094 7.50001 14.2551 7.50001 13.9899C7.50001 13.7247 7.60536 13.4703 7.7929 13.2828C7.98044 13.0952 8.23479 12.9899 8.50001 12.9899H12.5V8.98987C12.5 8.72465 12.6054 8.4703 12.7929 8.28276C12.9804 8.09523 13.2348 7.98987 13.5 7.98987C13.7652 7.98987 14.0196 8.09523 14.2071 8.28276C14.3946 8.4703 14.5 8.72465 14.5 8.98987V12.9899H18.5C18.7652 12.9899 19.0196 13.0952 19.2071 13.2828C19.3946 13.4703 19.5 13.7247 19.5 13.9899Z" fill="#878787"/>
</svg>
