<svg width="27" height="28" viewBox="0 0 27 28" fill="none" xmlns="http://www.w3.org/2000/svg">
<path d="M25.46 6.25864L14.46 0.239891C14.1661 0.0774934 13.8358 -0.00769043 13.5 -0.00769043C13.1642 -0.00769043 12.8339 0.0774934 12.54 0.239891L1.54 6.26114C1.22586 6.43302 0.963629 6.68609 0.78069 6.99392C0.59775 7.30175 0.500813 7.65305 0.5 8.01114V19.9661C0.500813 20.3242 0.59775 20.6755 0.78069 20.9834C0.963629 21.2912 1.22586 21.5443 1.54 21.7161L12.54 27.7374C12.8339 27.8998 13.1642 27.985 13.5 27.985C13.8358 27.985 14.1661 27.8998 14.46 27.7374L25.46 21.7161C25.7741 21.5443 26.0364 21.2912 26.2193 20.9834C26.4023 20.6755 26.4992 20.3242 26.5 19.9661V8.01239C26.4999 7.65367 26.4032 7.30158 26.2203 6.99303C26.0373 6.68449 25.7747 6.43083 25.46 6.25864ZM13.5 1.98989L23.5425 7.48989L19.8213 9.52739L9.7775 4.02739L13.5 1.98989ZM13.5 12.9899L3.4575 7.48989L7.695 5.16989L17.7375 10.6699L13.5 12.9899ZM2.5 9.23989L12.5 14.7124V25.4361L2.5 19.9674V9.23989ZM24.5 19.9624L14.5 25.4361V14.7174L18.5 12.5286V16.9899C18.5 17.2551 18.6054 17.5095 18.7929 17.697C18.9804 17.8845 19.2348 17.9899 19.5 17.9899C19.7652 17.9899 20.0196 17.8845 20.2071 17.697C20.3946 17.5095 20.5 17.2551 20.5 16.9899V11.4336L24.5 9.23989V19.9611V19.9624Z" fill="#4F56D3"/>
</svg>
