<svg width="29" height="29" viewBox="0 0 29 29" fill="none" xmlns="http://www.w3.org/2000/svg">
<path d="M26.7325 11.8424C26.2612 11.3499 25.7738 10.8424 25.59 10.3961C25.42 9.98737 25.41 9.30987 25.4 8.65362C25.3813 7.43362 25.3612 6.05112 24.4 5.08987C23.4387 4.12862 22.0562 4.10862 20.8363 4.08987C20.18 4.07987 19.5025 4.06987 19.0938 3.89987C18.6488 3.71612 18.14 3.22862 17.6475 2.75737C16.785 1.92862 15.805 0.989868 14.5 0.989868C13.195 0.989868 12.2162 1.92862 11.3525 2.75737C10.86 3.22862 10.3525 3.71612 9.90625 3.89987C9.5 4.06987 8.82 4.07987 8.16375 4.08987C6.94375 4.10862 5.56125 4.12862 4.6 5.08987C3.63875 6.05112 3.625 7.43362 3.6 8.65362C3.59 9.30987 3.58 9.98737 3.41 10.3961C3.22625 10.8411 2.73875 11.3499 2.2675 11.8424C1.43875 12.7049 0.5 13.6849 0.5 14.9899C0.5 16.2949 1.43875 17.2736 2.2675 18.1374C2.73875 18.6299 3.22625 19.1374 3.41 19.5836C3.58 19.9924 3.59 20.6699 3.6 21.3261C3.61875 22.5461 3.63875 23.9286 4.6 24.8899C5.56125 25.8511 6.94375 25.8711 8.16375 25.8899C8.82 25.8999 9.4975 25.9099 9.90625 26.0799C10.3512 26.2636 10.86 26.7511 11.3525 27.2224C12.215 28.0511 13.195 28.9899 14.5 28.9899C15.805 28.9899 16.7837 28.0511 17.6475 27.2224C18.14 26.7511 18.6475 26.2636 19.0938 26.0799C19.5025 25.9099 20.18 25.8999 20.8363 25.8899C22.0562 25.8711 23.4387 25.8511 24.4 24.8899C25.3612 23.9286 25.3813 22.5461 25.4 21.3261C25.41 20.6699 25.42 19.9924 25.59 19.5836C25.7738 19.1386 26.2612 18.6299 26.7325 18.1374C27.5613 17.2749 28.5 16.2949 28.5 14.9899C28.5 13.6849 27.5613 12.7061 26.7325 11.8424ZM25.2887 16.7536C24.69 17.3786 24.07 18.0249 23.7412 18.8186C23.4262 19.5811 23.4125 20.4524 23.4 21.2961C23.3875 22.1711 23.3738 23.0874 22.985 23.4749C22.5963 23.8624 21.6862 23.8774 20.8062 23.8899C19.9625 23.9024 19.0913 23.9161 18.3288 24.2311C17.535 24.5599 16.8888 25.1799 16.2638 25.7786C15.6388 26.3774 15 26.9899 14.5 26.9899C14 26.9899 13.3562 26.3749 12.7362 25.7786C12.1163 25.1824 11.465 24.5599 10.6713 24.2311C9.90875 23.9161 9.0375 23.9024 8.19375 23.8899C7.31875 23.8774 6.4025 23.8636 6.015 23.4749C5.6275 23.0861 5.6125 22.1761 5.6 21.2961C5.5875 20.4524 5.57375 19.5811 5.25875 18.8186C4.93 18.0249 4.31 17.3786 3.71125 16.7536C3.1125 16.1286 2.5 15.4899 2.5 14.9899C2.5 14.4899 3.115 13.8461 3.71125 13.2261C4.3075 12.6061 4.93 11.9549 5.25875 11.1611C5.57375 10.3986 5.5875 9.52737 5.6 8.68362C5.6125 7.80862 5.62625 6.89237 6.015 6.50487C6.40375 6.11737 7.31375 6.10237 8.19375 6.08987C9.0375 6.07737 9.90875 6.06362 10.6713 5.74862C11.465 5.41987 12.1112 4.79987 12.7362 4.20112C13.3612 3.60237 14 2.98987 14.5 2.98987C15 2.98987 15.6438 3.60487 16.2638 4.20112C16.8838 4.79737 17.535 5.41987 18.3288 5.74862C19.0913 6.06362 19.9625 6.07737 20.8062 6.08987C21.6812 6.10237 22.5975 6.11612 22.985 6.50487C23.3725 6.89362 23.3875 7.80362 23.4 8.68362C23.4125 9.52737 23.4262 10.3986 23.7412 11.1611C24.07 11.9549 24.69 12.6011 25.2887 13.2261C25.8875 13.8511 26.5 14.4899 26.5 14.9899C26.5 15.4899 25.885 16.1336 25.2887 16.7536ZM20.2075 11.2824C20.3005 11.3752 20.3742 11.4855 20.4246 11.6069C20.4749 11.7283 20.5008 11.8585 20.5008 11.9899C20.5008 12.1213 20.4749 12.2514 20.4246 12.3728C20.3742 12.4942 20.3005 12.6045 20.2075 12.6974L13.2075 19.6974C13.1146 19.7903 13.0043 19.8641 12.8829 19.9144C12.7615 19.9648 12.6314 19.9907 12.5 19.9907C12.3686 19.9907 12.2385 19.9648 12.1171 19.9144C11.9957 19.8641 11.8854 19.7903 11.7925 19.6974L8.7925 16.6974C8.60486 16.5097 8.49944 16.2552 8.49944 15.9899C8.49944 15.7245 8.60486 15.47 8.7925 15.2824C8.98014 15.0947 9.23464 14.9893 9.5 14.9893C9.76536 14.9893 10.0199 15.0947 10.2075 15.2824L12.5 17.5761L18.7925 11.2824C18.8854 11.1894 18.9957 11.1156 19.1171 11.0653C19.2385 11.015 19.3686 10.9891 19.5 10.9891C19.6314 10.9891 19.7615 11.015 19.8829 11.0653C20.0043 11.1156 20.1146 11.1894 20.2075 11.2824Z" fill="#878787"/>
</svg>
