<svg width="23" height="23" viewBox="0 0 23 23" fill="none" xmlns="http://www.w3.org/2000/svg">
<path d="M20.5 0.989868H2.5C1.96957 0.989868 1.46086 1.20058 1.08579 1.57565C0.710714 1.95073 0.5 2.45944 0.5 2.98987V20.9899C0.5 21.5203 0.710714 22.029 1.08579 22.4041C1.46086 22.7792 1.96957 22.9899 2.5 22.9899H20.5C21.0304 22.9899 21.5391 22.7792 21.9142 22.4041C22.2893 22.029 22.5 21.5203 22.5 20.9899V2.98987C22.5 2.45944 22.2893 1.95073 21.9142 1.57565C21.5391 1.20058 21.0304 0.989868 20.5 0.989868ZM20.5 10.9899H12.5V2.98987H20.5V10.9899ZM10.5 2.98987V10.9899H2.5V2.98987H10.5ZM2.5 12.9899H10.5V20.9899H2.5V12.9899ZM20.5 20.9899H12.5V12.9899H20.5V20.9899Z" fill="#878787"/>
</svg>
