<svg width="23" height="27" viewBox="0 0 23 27" fill="none" xmlns="http://www.w3.org/2000/svg">
<path d="M22.2075 8.28237L15.2075 1.28237C15.1146 1.18953 15.0042 1.11592 14.8829 1.06573C14.7615 1.01554 14.6314 0.989765 14.5 0.989868H2.5C1.96957 0.989868 1.46086 1.20058 1.08579 1.57565C0.710714 1.95073 0.5 2.45944 0.5 2.98987V24.9899C0.5 25.5203 0.710714 26.029 1.08579 26.4041C1.46086 26.7792 1.96957 26.9899 2.5 26.9899H20.5C21.0304 26.9899 21.5391 26.7792 21.9142 26.4041C22.2893 26.029 22.5 25.5203 22.5 24.9899V8.98987C22.5001 8.85851 22.4743 8.72841 22.4241 8.60702C22.3739 8.48562 22.3003 8.37531 22.2075 8.28237ZM15.5 4.40362L19.0863 7.98987H15.5V4.40362ZM20.5 24.9899H2.5V2.98987H13.5V8.98987C13.5 9.25508 13.6054 9.50944 13.7929 9.69697C13.9804 9.88451 14.2348 9.98987 14.5 9.98987H20.5V24.9899ZM15.2075 15.2824C15.3004 15.3753 15.3741 15.4856 15.4244 15.607C15.4747 15.7284 15.5006 15.8585 15.5006 15.9899C15.5006 16.1213 15.4747 16.2514 15.4244 16.3728C15.3741 16.4942 15.3004 16.6045 15.2075 16.6974C15.1146 16.7903 15.0043 16.864 14.8829 16.9143C14.7615 16.9645 14.6314 16.9904 14.5 16.9904C14.3686 16.9904 14.2385 16.9645 14.1171 16.9143C13.9957 16.864 13.8854 16.7903 13.7925 16.6974L12.5 15.4036V20.9899C12.5 21.2551 12.3946 21.5094 12.2071 21.697C12.0196 21.8845 11.7652 21.9899 11.5 21.9899C11.2348 21.9899 10.9804 21.8845 10.7929 21.697C10.6054 21.5094 10.5 21.2551 10.5 20.9899V15.4036L9.2075 16.6974C9.11459 16.7903 9.00429 16.864 8.8829 16.9143C8.7615 16.9645 8.6314 16.9904 8.5 16.9904C8.36861 16.9904 8.2385 16.9645 8.1171 16.9143C7.99571 16.864 7.88541 16.7903 7.7925 16.6974C7.69959 16.6045 7.62589 16.4942 7.57561 16.3728C7.52532 16.2514 7.49944 16.1213 7.49944 15.9899C7.49944 15.8585 7.52532 15.7284 7.57561 15.607C7.62589 15.4856 7.69959 15.3753 7.7925 15.2824L10.7925 12.2824C10.8854 12.1894 10.9957 12.1156 11.1171 12.0653C11.2385 12.015 11.3686 11.9891 11.5 11.9891C11.6314 11.9891 11.7615 12.015 11.8829 12.0653C12.0043 12.1156 12.1146 12.1894 12.2075 12.2824L15.2075 15.2824Z" fill="#878787"/>
</svg>
