<svg width="25" height="25" viewBox="0 0 25 25" fill="none" xmlns="http://www.w3.org/2000/svg">
<path d="M24.395 5.54237L22.395 1.54237C22.3119 1.37623 22.1841 1.23653 22.026 1.13895C21.8679 1.04136 21.6858 0.989735 21.5 0.989868H3.5C3.31422 0.989735 3.13208 1.04136 2.97399 1.13895C2.81591 1.23653 2.68814 1.37623 2.605 1.54237L0.605 5.54237C0.536071 5.68148 0.500141 5.83461 0.5 5.98987V22.9899C0.5 23.5203 0.710714 24.029 1.08579 24.4041C1.46086 24.7792 1.96957 24.9899 2.5 24.9899H22.5C23.0304 24.9899 23.5391 24.7792 23.9142 24.4041C24.2893 24.029 24.5 23.5203 24.5 22.9899V5.98987C24.4999 5.83461 24.4639 5.68148 24.395 5.54237ZM4.1175 2.98987H20.8825L21.8825 4.98987H3.1175L4.1175 2.98987ZM22.5 22.9899H2.5V6.98987H22.5V22.9899ZM17.2075 15.2824C17.3005 15.3752 17.3742 15.4855 17.4246 15.6069C17.4749 15.7283 17.5008 15.8585 17.5008 15.9899C17.5008 16.1213 17.4749 16.2514 17.4246 16.3728C17.3742 16.4942 17.3005 16.6045 17.2075 16.6974L13.2075 20.6974C13.1146 20.7903 13.0043 20.8641 12.8829 20.9144C12.7615 20.9648 12.6314 20.9907 12.5 20.9907C12.3686 20.9907 12.2385 20.9648 12.1171 20.9144C11.9957 20.8641 11.8854 20.7903 11.7925 20.6974L7.7925 16.6974C7.60486 16.5097 7.49944 16.2552 7.49944 15.9899C7.49944 15.7245 7.60486 15.47 7.7925 15.2824C7.98014 15.0947 8.23464 14.9893 8.5 14.9893C8.76536 14.9893 9.01986 15.0947 9.2075 15.2824L11.5 17.5761V9.98987C11.5 9.72465 11.6054 9.4703 11.7929 9.28276C11.9804 9.09523 12.2348 8.98987 12.5 8.98987C12.7652 8.98987 13.0196 9.09523 13.2071 9.28276C13.3946 9.4703 13.5 9.72465 13.5 9.98987V17.5761L15.7925 15.2824C15.8854 15.1894 15.9957 15.1156 16.1171 15.0653C16.2385 15.015 16.3686 14.9891 16.5 14.9891C16.6314 14.9891 16.7615 15.015 16.8829 15.0653C17.0043 15.1156 17.1146 15.1894 17.2075 15.2824Z" fill="#CDFF65"/>
</svg>
