<svg width="27" height="23" viewBox="0 0 27 23" fill="none" xmlns="http://www.w3.org/2000/svg">
<path d="M26.5 1.98987V6.98987C26.5 7.25508 26.3946 7.50944 26.2071 7.69697C26.0196 7.88451 25.7652 7.98987 25.5 7.98987C25.2348 7.98987 24.9804 7.88451 24.7929 7.69697C24.6054 7.50944 24.5 7.25508 24.5 6.98987V2.98987H20.5C20.2348 2.98987 19.9804 2.88451 19.7929 2.69697C19.6054 2.50944 19.5 2.25508 19.5 1.98987C19.5 1.72465 19.6054 1.4703 19.7929 1.28276C19.9804 1.09523 20.2348 0.989868 20.5 0.989868H25.5C25.7652 0.989868 26.0196 1.09523 26.2071 1.28276C26.3946 1.4703 26.5 1.72465 26.5 1.98987ZM6.5 20.9899H2.5V16.9899C2.5 16.7247 2.39464 16.4703 2.20711 16.2828C2.01957 16.0952 1.76522 15.9899 1.5 15.9899C1.23478 15.9899 0.98043 16.0952 0.792893 16.2828C0.605357 16.4703 0.5 16.7247 0.5 16.9899V21.9899C0.5 22.2551 0.605357 22.5094 0.792893 22.697C0.98043 22.8845 1.23478 22.9899 1.5 22.9899H6.5C6.76522 22.9899 7.01957 22.8845 7.20711 22.697C7.39464 22.5094 7.5 22.2551 7.5 21.9899C7.5 21.7247 7.39464 21.4703 7.20711 21.2828C7.01957 21.0952 6.76522 20.9899 6.5 20.9899ZM25.5 15.9899C25.2348 15.9899 24.9804 16.0952 24.7929 16.2828C24.6054 16.4703 24.5 16.7247 24.5 16.9899V20.9899H20.5C20.2348 20.9899 19.9804 21.0952 19.7929 21.2828C19.6054 21.4703 19.5 21.7247 19.5 21.9899C19.5 22.2551 19.6054 22.5094 19.7929 22.697C19.9804 22.8845 20.2348 22.9899 20.5 22.9899H25.5C25.7652 22.9899 26.0196 22.8845 26.2071 22.697C26.3946 22.5094 26.5 22.2551 26.5 21.9899V16.9899C26.5 16.7247 26.3946 16.4703 26.2071 16.2828C26.0196 16.0952 25.7652 15.9899 25.5 15.9899ZM1.5 7.98987C1.76522 7.98987 2.01957 7.88451 2.20711 7.69697C2.39464 7.50944 2.5 7.25508 2.5 6.98987V2.98987H6.5C6.76522 2.98987 7.01957 2.88451 7.20711 2.69697C7.39464 2.50944 7.5 2.25508 7.5 1.98987C7.5 1.72465 7.39464 1.4703 7.20711 1.28276C7.01957 1.09523 6.76522 0.989868 6.5 0.989868H1.5C1.23478 0.989868 0.98043 1.09523 0.792893 1.28276C0.605357 1.4703 0.5 1.72465 0.5 1.98987V6.98987C0.5 7.25508 0.605357 7.50944 0.792893 7.69697C0.98043 7.88451 1.23478 7.98987 1.5 7.98987ZM7.5 5.98987C7.23478 5.98987 6.98043 6.09523 6.79289 6.28276C6.60536 6.4703 6.5 6.72465 6.5 6.98987V16.9899C6.5 17.2551 6.60536 17.5094 6.79289 17.697C6.98043 17.8845 7.23478 17.9899 7.5 17.9899C7.76522 17.9899 8.01957 17.8845 8.20711 17.697C8.39464 17.5094 8.5 17.2551 8.5 16.9899V6.98987C8.5 6.72465 8.39464 6.4703 8.20711 6.28276C8.01957 6.09523 7.76522 5.98987 7.5 5.98987ZM20.5 16.9899V6.98987C20.5 6.72465 20.3946 6.4703 20.2071 6.28276C20.0196 6.09523 19.7652 5.98987 19.5 5.98987C19.2348 5.98987 18.9804 6.09523 18.7929 6.28276C18.6054 6.4703 18.5 6.72465 18.5 6.98987V16.9899C18.5 17.2551 18.6054 17.5094 18.7929 17.697C18.9804 17.8845 19.2348 17.9899 19.5 17.9899C19.7652 17.9899 20.0196 17.8845 20.2071 17.697C20.3946 17.5094 20.5 17.2551 20.5 16.9899ZM15.5 5.98987C15.2348 5.98987 14.9804 6.09523 14.7929 6.28276C14.6054 6.4703 14.5 6.72465 14.5 6.98987V16.9899C14.5 17.2551 14.6054 17.5094 14.7929 17.697C14.9804 17.8845 15.2348 17.9899 15.5 17.9899C15.7652 17.9899 16.0196 17.8845 16.2071 17.697C16.3946 17.5094 16.5 17.2551 16.5 16.9899V6.98987C16.5 6.72465 16.3946 6.4703 16.2071 6.28276C16.0196 6.09523 15.7652 5.98987 15.5 5.98987ZM11.5 5.98987C11.2348 5.98987 10.9804 6.09523 10.7929 6.28276C10.6054 6.4703 10.5 6.72465 10.5 6.98987V16.9899C10.5 17.2551 10.6054 17.5094 10.7929 17.697C10.9804 17.8845 11.2348 17.9899 11.5 17.9899C11.7652 17.9899 12.0196 17.8845 12.2071 17.697C12.3946 17.5094 12.5 17.2551 12.5 16.9899V6.98987C12.5 6.72465 12.3946 6.4703 12.2071 6.28276C12.0196 6.09523 11.7652 5.98987 11.5 5.98987Z" fill="#878787"/>
</svg>
