<svg width="27" height="21" viewBox="0 0 27 21" fill="none" xmlns="http://www.w3.org/2000/svg">
<path d="M24.5 0.989868H2.5C1.96957 0.989868 1.46086 1.20058 1.08579 1.57565C0.710714 1.95073 0.5 2.45944 0.5 2.98987V18.9899C0.5 19.5203 0.710714 20.029 1.08579 20.4041C1.46086 20.7792 1.96957 20.9899 2.5 20.9899H24.5C25.0304 20.9899 25.5391 20.7792 25.9142 20.4041C26.2893 20.029 26.5 19.5203 26.5 18.9899V2.98987C26.5 2.45944 26.2893 1.95073 25.9142 1.57565C25.5391 1.20058 25.0304 0.989868 24.5 0.989868ZM10.5 12.9899V8.98987H16.5V12.9899H10.5ZM16.5 14.9899V18.9899H10.5V14.9899H16.5ZM2.5 8.98987H8.5V12.9899H2.5V8.98987ZM10.5 6.98987V2.98987H16.5V6.98987H10.5ZM18.5 8.98987H24.5V12.9899H18.5V8.98987ZM24.5 6.98987H18.5V2.98987H24.5V6.98987ZM8.5 2.98987V6.98987H2.5V2.98987H8.5ZM2.5 14.9899H8.5V18.9899H2.5V14.9899ZM24.5 18.9899H18.5V14.9899H24.5V18.9899Z" fill="#878787"/>
</svg>
