<svg width="28" height="28" viewBox="0 0 28 28" fill="none" xmlns="http://www.w3.org/2000/svg">
<path d="M26.9138 13.9899L14.5 1.57613C14.315 1.3896 14.0947 1.24172 13.852 1.14108C13.6093 1.04043 13.349 0.989039 13.0863 0.989878H1.50001C1.23479 0.989878 0.98044 1.09524 0.792904 1.28277C0.605367 1.47031 0.50001 1.72466 0.50001 1.98988V13.5761C0.499171 13.8389 0.550566 14.0992 0.651209 14.3419C0.751852 14.5846 0.899734 14.8048 1.08626 14.9899L13.5 27.4036C13.6857 27.5894 13.9062 27.7368 14.1489 27.8373C14.3916 27.9378 14.6517 27.9896 14.9144 27.9896C15.1771 27.9896 15.4372 27.9378 15.6799 27.8373C15.9225 27.7368 16.143 27.5894 16.3288 27.4036L26.9138 16.8186C27.0995 16.6329 27.2469 16.4124 27.3474 16.1697C27.448 15.927 27.4997 15.6669 27.4997 15.4043C27.4997 15.1416 27.448 14.8815 27.3474 14.6388C27.2469 14.3961 27.0995 14.1756 26.9138 13.9899ZM14.9138 25.9899L2.50001 13.5761V2.98988H13.0863L25.5 15.4036L14.9138 25.9899ZM8.50001 7.48988C8.50001 7.78655 8.41204 8.07656 8.24721 8.32323C8.08239 8.56991 7.84812 8.76217 7.57404 8.8757C7.29995 8.98923 6.99835 9.01893 6.70737 8.96106C6.4164 8.90318 6.14913 8.76032 5.93935 8.55054C5.72957 8.34076 5.58671 8.07349 5.52883 7.78251C5.47095 7.49154 5.50066 7.18994 5.61419 6.91585C5.72772 6.64176 5.91998 6.4075 6.16666 6.24267C6.41333 6.07785 6.70334 5.98988 7.00001 5.98988C7.39783 5.98988 7.77937 6.14791 8.06067 6.42922C8.34197 6.71052 8.50001 7.09205 8.50001 7.48988Z" fill="#878787"/>
</svg>
