<svg width="27" height="25" viewBox="0 0 27 25" fill="none" xmlns="http://www.w3.org/2000/svg">
<path d="M14.5 11.9899V23.9899C14.5 24.2551 14.3946 24.5094 14.2071 24.697C14.0196 24.8845 13.7652 24.9899 13.5 24.9899C13.2348 24.9899 12.9804 24.8845 12.7929 24.697C12.6054 24.5094 12.5 24.2551 12.5 23.9899V11.9899C12.5 11.7247 12.6054 11.4703 12.7929 11.2828C12.9804 11.0952 13.2348 10.9899 13.5 10.9899C13.7652 10.9899 14.0196 11.0952 14.2071 11.2828C14.3946 11.4703 14.5 11.7247 14.5 11.9899ZM22.5 20.9899C22.2348 20.9899 21.9804 21.0952 21.7929 21.2828C21.6054 21.4703 21.5 21.7247 21.5 21.9899V23.9899C21.5 24.2551 21.6054 24.5094 21.7929 24.697C21.9804 24.8845 22.2348 24.9899 22.5 24.9899C22.7652 24.9899 23.0196 24.8845 23.2071 24.697C23.3946 24.5094 23.5 24.2551 23.5 23.9899V21.9899C23.5 21.7247 23.3946 21.4703 23.2071 21.2828C23.0196 21.0952 22.7652 20.9899 22.5 20.9899ZM25.5 16.9899H23.5V1.98987C23.5 1.72465 23.3946 1.4703 23.2071 1.28276C23.0196 1.09523 22.7652 0.989868 22.5 0.989868C22.2348 0.989868 21.9804 1.09523 21.7929 1.28276C21.6054 1.4703 21.5 1.72465 21.5 1.98987V16.9899H19.5C19.2348 16.9899 18.9804 17.0952 18.7929 17.2828C18.6054 17.4703 18.5 17.7247 18.5 17.9899C18.5 18.2551 18.6054 18.5094 18.7929 18.697C18.9804 18.8845 19.2348 18.9899 19.5 18.9899H25.5C25.7652 18.9899 26.0196 18.8845 26.2071 18.697C26.3946 18.5094 26.5 18.2551 26.5 17.9899C26.5 17.7247 26.3946 17.4703 26.2071 17.2828C26.0196 17.0952 25.7652 16.9899 25.5 16.9899ZM4.5 16.9899C4.23478 16.9899 3.98043 17.0952 3.79289 17.2828C3.60536 17.4703 3.5 17.7247 3.5 17.9899V23.9899C3.5 24.2551 3.60536 24.5094 3.79289 24.697C3.98043 24.8845 4.23478 24.9899 4.5 24.9899C4.76522 24.9899 5.01957 24.8845 5.20711 24.697C5.39464 24.5094 5.5 24.2551 5.5 23.9899V17.9899C5.5 17.7247 5.39464 17.4703 5.20711 17.2828C5.01957 17.0952 4.76522 16.9899 4.5 16.9899ZM7.5 12.9899H5.5V1.98987C5.5 1.72465 5.39464 1.4703 5.20711 1.28276C5.01957 1.09523 4.76522 0.989868 4.5 0.989868C4.23478 0.989868 3.98043 1.09523 3.79289 1.28276C3.60536 1.4703 3.5 1.72465 3.5 1.98987V12.9899H1.5C1.23478 12.9899 0.98043 13.0952 0.792893 13.2828C0.605357 13.4703 0.5 13.7247 0.5 13.9899C0.5 14.2551 0.605357 14.5094 0.792893 14.697C0.98043 14.8845 1.23478 14.9899 1.5 14.9899H7.5C7.76522 14.9899 8.01957 14.8845 8.20711 14.697C8.39464 14.5094 8.5 14.2551 8.5 13.9899C8.5 13.7247 8.39464 13.4703 8.20711 13.2828C8.01957 13.0952 7.76522 12.9899 7.5 12.9899ZM16.5 6.98987H14.5V1.98987C14.5 1.72465 14.3946 1.4703 14.2071 1.28276C14.0196 1.09523 13.7652 0.989868 13.5 0.989868C13.2348 0.989868 12.9804 1.09523 12.7929 1.28276C12.6054 1.4703 12.5 1.72465 12.5 1.98987V6.98987H10.5C10.2348 6.98987 9.98043 7.09523 9.79289 7.28276C9.60536 7.4703 9.5 7.72465 9.5 7.98987C9.5 8.25508 9.60536 8.50944 9.79289 8.69697C9.98043 8.88451 10.2348 8.98987 10.5 8.98987H16.5C16.7652 8.98987 17.0196 8.88451 17.2071 8.69697C17.3946 8.50944 17.5 8.25508 17.5 7.98987C17.5 7.72465 17.3946 7.4703 17.2071 7.28276C17.0196 7.09523 16.7652 6.98987 16.5 6.98987Z" fill="#878787"/>
</svg>
