<svg width="25" height="25" viewBox="0 0 25 25" fill="none" xmlns="http://www.w3.org/2000/svg">
<path d="M10.5 23.9899C10.5 24.2551 10.3946 24.5094 10.2071 24.697C10.0196 24.8845 9.76522 24.9899 9.5 24.9899H2.5C1.96957 24.9899 1.46086 24.7792 1.08579 24.4041C0.710714 24.029 0.5 23.5203 0.5 22.9899V2.98987C0.5 2.45944 0.710714 1.95073 1.08579 1.57565C1.46086 1.20058 1.96957 0.989868 2.5 0.989868H9.5C9.76522 0.989868 10.0196 1.09523 10.2071 1.28276C10.3946 1.4703 10.5 1.72465 10.5 1.98987C10.5 2.25508 10.3946 2.50944 10.2071 2.69697C10.0196 2.88451 9.76522 2.98987 9.5 2.98987H2.5V22.9899H9.5C9.76522 22.9899 10.0196 23.0952 10.2071 23.2828C10.3946 23.4703 10.5 23.7247 10.5 23.9899ZM24.2075 12.2824L19.2075 7.28237C19.0199 7.09473 18.7654 6.98931 18.5 6.98931C18.2346 6.98931 17.9801 7.09473 17.7925 7.28237C17.6049 7.47001 17.4994 7.7245 17.4994 7.98987C17.4994 8.25523 17.6049 8.50973 17.7925 8.69737L21.0863 11.9899H9.5C9.23478 11.9899 8.98043 12.0952 8.79289 12.2828C8.60536 12.4703 8.5 12.7247 8.5 12.9899C8.5 13.2551 8.60536 13.5094 8.79289 13.697C8.98043 13.8845 9.23478 13.9899 9.5 13.9899H21.0863L17.7925 17.2824C17.6049 17.47 17.4994 17.7245 17.4994 17.9899C17.4994 18.2552 17.6049 18.5097 17.7925 18.6974C17.9801 18.885 18.2346 18.9904 18.5 18.9904C18.7654 18.9904 19.0199 18.885 19.2075 18.6974L24.2075 13.6974C24.3005 13.6045 24.3742 13.4942 24.4246 13.3728C24.4749 13.2514 24.5008 13.1213 24.5008 12.9899C24.5008 12.8585 24.4749 12.7283 24.4246 12.6069C24.3742 12.4855 24.3005 12.3752 24.2075 12.2824Z" fill="#878787"/>
</svg>
