<svg width="29" height="26" viewBox="0 0 29 26" fill="none" xmlns="http://www.w3.org/2000/svg">
<path d="M27.4738 20.4061C28.1791 18.9725 28.5305 17.3908 28.4988 15.7934C28.4671 14.196 28.0531 12.6295 27.2915 11.225C26.5299 9.82048 25.4428 8.61892 24.1214 7.72092C22.7999 6.82292 21.2825 6.25462 19.6963 6.06362C19.1702 4.83727 18.404 3.72862 17.4428 2.80298C16.4817 1.87734 15.3449 1.15343 14.0997 0.673913C12.8544 0.194393 11.5257 -0.0310422 10.192 0.0108895C8.8582 0.0528212 7.54632 0.361272 6.33362 0.918068C5.12091 1.47486 4.03191 2.26874 3.13078 3.25293C2.22964 4.23712 1.5346 5.39171 1.0866 6.64868C0.638597 7.90565 0.446701 9.23957 0.522215 10.5718C0.59773 11.9041 0.939127 13.2078 1.52629 14.4061L0.568793 17.7586C0.483351 18.0585 0.479608 18.3758 0.557951 18.6777C0.636295 18.9796 0.793878 19.255 1.01439 19.4755C1.23491 19.696 1.51035 19.8536 1.8122 19.932C2.11406 20.0103 2.43137 20.0066 2.73129 19.9211L6.08379 18.9636C7.09543 19.4603 8.18362 19.7827 9.30254 19.9174C9.83591 21.167 10.6183 22.2948 11.6021 23.232C12.5858 24.1692 13.7502 24.8961 15.0242 25.3683C16.2981 25.8405 17.655 26.0482 19.0119 25.9786C20.3688 25.909 21.6973 25.5637 22.9163 24.9636L26.2688 25.9211C26.5687 26.0066 26.886 26.0103 27.1879 25.932C27.4897 25.8536 27.7652 25.696 27.9857 25.4755C28.2062 25.255 28.3638 24.9796 28.4421 24.6777C28.5205 24.3758 28.5167 24.0585 28.4313 23.7586L27.4738 20.4061ZM6.19129 16.8936C6.09835 16.8936 6.00584 16.9062 5.91629 16.9311L2.61504 17.8749L3.55879 14.5736C3.62952 14.3221 3.59901 14.0529 3.47379 13.8236C2.55431 12.1355 2.27392 10.1726 2.68399 8.29463C3.09406 6.41663 4.16714 4.74927 5.70659 3.59811C7.24603 2.44695 9.14875 1.88907 11.0661 2.0267C12.9834 2.16433 14.7869 2.98825 16.1462 4.3475C17.5054 5.70674 18.3293 7.51026 18.467 9.42759C18.6046 11.3449 18.0467 13.2476 16.8955 14.7871C15.7444 16.3265 14.077 17.3996 12.199 17.8097C10.321 18.2197 8.35813 17.9393 6.67004 17.0199C6.52369 16.938 6.35898 16.8946 6.19129 16.8936ZM25.4413 20.5736L26.385 23.8749L23.0838 22.9311C22.8323 22.8604 22.5631 22.8909 22.3338 23.0161C20.4904 24.019 18.327 24.2582 16.3091 23.6821C14.2912 23.1061 12.58 21.761 11.5438 19.9361C12.9131 19.7935 14.2382 19.3695 15.4359 18.6905C16.6335 18.0116 17.678 17.0925 18.5037 15.9909C19.3294 14.8893 19.9185 13.6289 20.2341 12.2888C20.5497 10.9488 20.5849 9.55794 20.3375 8.20362C21.5358 8.48601 22.6528 9.04115 23.6014 9.82582C24.55 10.6105 25.3048 11.6035 25.8069 12.7276C26.309 13.8516 26.5449 15.0764 26.4962 16.3065C26.4475 17.5367 26.1156 18.739 25.5263 19.8199C25.4001 20.0502 25.3695 20.321 25.4413 20.5736Z" fill="#878787"/>
</svg>
