<svg width="27" height="21" viewBox="0 0 27 21" fill="none" xmlns="http://www.w3.org/2000/svg">
<path d="M25.5 0.989868H1.5C1.23478 0.989868 0.98043 1.09523 0.792893 1.28276C0.605357 1.4703 0.5 1.72465 0.5 1.98987V18.9899C0.5 19.5203 0.710714 20.029 1.08579 20.4041C1.46086 20.7792 1.96957 20.9899 2.5 20.9899H24.5C25.0304 20.9899 25.5391 20.7792 25.9142 20.4041C26.2893 20.029 26.5 19.5203 26.5 18.9899V1.98987C26.5 1.72465 26.3946 1.4703 26.2071 1.28276C26.0196 1.09523 25.7652 0.989868 25.5 0.989868ZM22.9287 2.98987L13.5 11.6336L4.07125 2.98987H22.9287ZM24.5 18.9899H2.5V4.26362L12.8237 13.7274C13.0082 13.8967 13.2496 13.9907 13.5 13.9907C13.7504 13.9907 13.9918 13.8967 14.1763 13.7274L24.5 4.26362V18.9899Z" fill="#878787"/>
</svg>
