<svg width="25" height="27" viewBox="0 0 25 27" fill="none" xmlns="http://www.w3.org/2000/svg">
<path d="M22.5 2.98987H19.5V1.98987C19.5 1.72465 19.3946 1.4703 19.2071 1.28276C19.0196 1.09522 18.7652 0.989868 18.5 0.989868C18.2348 0.989868 17.9804 1.09522 17.7929 1.28276C17.6054 1.4703 17.5 1.72465 17.5 1.98987V2.98987H7.5V1.98987C7.5 1.72465 7.39464 1.4703 7.20711 1.28276C7.01957 1.09522 6.76522 0.989868 6.5 0.989868C6.23478 0.989868 5.98043 1.09522 5.79289 1.28276C5.60536 1.4703 5.5 1.72465 5.5 1.98987V2.98987H2.5C1.96957 2.98987 1.46086 3.20058 1.08579 3.57565C0.710714 3.95073 0.5 4.45944 0.5 4.98987V24.9899C0.5 25.5203 0.710714 26.029 1.08579 26.4041C1.46086 26.7792 1.96957 26.9899 2.5 26.9899H22.5C23.0304 26.9899 23.5391 26.7792 23.9142 26.4041C24.2893 26.029 24.5 25.5203 24.5 24.9899V4.98987C24.5 4.45944 24.2893 3.95073 23.9142 3.57565C23.5391 3.20058 23.0304 2.98987 22.5 2.98987ZM5.5 4.98987V5.98987C5.5 6.25508 5.60536 6.50944 5.79289 6.69697C5.98043 6.88451 6.23478 6.98987 6.5 6.98987C6.76522 6.98987 7.01957 6.88451 7.20711 6.69697C7.39464 6.50944 7.5 6.25508 7.5 5.98987V4.98987H17.5V5.98987C17.5 6.25508 17.6054 6.50944 17.7929 6.69697C17.9804 6.88451 18.2348 6.98987 18.5 6.98987C18.7652 6.98987 19.0196 6.88451 19.2071 6.69697C19.3946 6.50944 19.5 6.25508 19.5 5.98987V4.98987H22.5V8.98987H2.5V4.98987H5.5ZM22.5 24.9899H2.5V10.9899H22.5V24.9899Z" fill="#878787"/>
</svg>
