<svg width="24" height="21" viewBox="0 0 24 21" fill="none" xmlns="http://www.w3.org/2000/svg">
<path d="M12.875 9.625V20.125C12.875 20.3571 12.7828 20.5796 12.6187 20.7437C12.4546 20.9078 12.2321 21 12 21C11.7679 21 11.5454 20.9078 11.3813 20.7437C11.2172 20.5796 11.125 20.3571 11.125 20.125V9.625C11.125 9.39294 11.2172 9.17038 11.3813 9.00628C11.5454 8.84219 11.7679 8.75 12 8.75C12.2321 8.75 12.4546 8.84219 12.6187 9.00628C12.7828 9.17038 12.875 9.39294 12.875 9.625ZM19.875 17.5C19.6429 17.5 19.4204 17.5922 19.2563 17.7563C19.0922 17.9204 19 18.1429 19 18.375V20.125C19 20.3571 19.0922 20.5796 19.2563 20.7437C19.4204 20.9078 19.6429 21 19.875 21C20.1071 21 20.3296 20.9078 20.4937 20.7437C20.6578 20.5796 20.75 20.3571 20.75 20.125V18.375C20.75 18.1429 20.6578 17.9204 20.4937 17.7563C20.3296 17.5922 20.1071 17.5 19.875 17.5ZM22.5 14H20.75V0.875C20.75 0.642936 20.6578 0.420376 20.4937 0.256282C20.3296 0.0921874 20.1071 0 19.875 0C19.6429 0 19.4204 0.0921874 19.2563 0.256282C19.0922 0.420376 19 0.642936 19 0.875V14H17.25C17.0179 14 16.7954 14.0922 16.6313 14.2563C16.4672 14.4204 16.375 14.6429 16.375 14.875C16.375 15.1071 16.4672 15.3296 16.6313 15.4937C16.7954 15.6578 17.0179 15.75 17.25 15.75H22.5C22.7321 15.75 22.9546 15.6578 23.1187 15.4937C23.2828 15.3296 23.375 15.1071 23.375 14.875C23.375 14.6429 23.2828 14.4204 23.1187 14.2563C22.9546 14.0922 22.7321 14 22.5 14ZM4.125 14C3.89294 14 3.67038 14.0922 3.50628 14.2563C3.34219 14.4204 3.25 14.6429 3.25 14.875V20.125C3.25 20.3571 3.34219 20.5796 3.50628 20.7437C3.67038 20.9078 3.89294 21 4.125 21C4.35706 21 4.57962 20.9078 4.74372 20.7437C4.90781 20.5796 5 20.3571 5 20.125V14.875C5 14.6429 4.90781 14.4204 4.74372 14.2563C4.57962 14.0922 4.35706 14 4.125 14ZM6.75 10.5H5V0.875C5 0.642936 4.90781 0.420376 4.74372 0.256282C4.57962 0.0921874 4.35706 0 4.125 0C3.89294 0 3.67038 0.0921874 3.50628 0.256282C3.34219 0.420376 3.25 0.642936 3.25 0.875V10.5H1.5C1.26794 10.5 1.04538 10.5922 0.881282 10.7563C0.717187 10.9204 0.625 11.1429 0.625 11.375C0.625 11.6071 0.717187 11.8296 0.881282 11.9937C1.04538 12.1578 1.26794 12.25 1.5 12.25H6.75C6.98206 12.25 7.20462 12.1578 7.36872 11.9937C7.53281 11.8296 7.625 11.6071 7.625 11.375C7.625 11.1429 7.53281 10.9204 7.36872 10.7563C7.20462 10.5922 6.98206 10.5 6.75 10.5ZM14.625 5.25H12.875V0.875C12.875 0.642936 12.7828 0.420376 12.6187 0.256282C12.4546 0.0921874 12.2321 0 12 0C11.7679 0 11.5454 0.0921874 11.3813 0.256282C11.2172 0.420376 11.125 0.642936 11.125 0.875V5.25H9.375C9.14294 5.25 8.92038 5.34219 8.75628 5.50628C8.59219 5.67038 8.5 5.89294 8.5 6.125C8.5 6.35706 8.59219 6.57962 8.75628 6.74372C8.92038 6.90781 9.14294 7 9.375 7H14.625C14.8571 7 15.0796 6.90781 15.2437 6.74372C15.4078 6.57962 15.5 6.35706 15.5 6.125C15.5 5.89294 15.4078 5.67038 15.2437 5.50628C15.0796 5.34219 14.8571 5.25 14.625 5.25Z" fill="#878787"/>
</svg>
