<svg width="24" height="19" viewBox="0 0 24 19" fill="none" xmlns="http://www.w3.org/2000/svg">
<path d="M22.5 0.75H1.5C1.26794 0.75 1.04538 0.842187 0.881282 1.00628C0.717187 1.17038 0.625 1.39294 0.625 1.625V16.5C0.625 16.9641 0.809374 17.4092 1.13756 17.7374C1.46575 18.0656 1.91087 18.25 2.375 18.25H21.625C22.0891 18.25 22.5342 18.0656 22.8624 17.7374C23.1906 17.4092 23.375 16.9641 23.375 16.5V1.625C23.375 1.39294 23.2828 1.17038 23.1187 1.00628C22.9546 0.842187 22.7321 0.75 22.5 0.75ZM20.2502 2.5L12 10.0633L3.74984 2.5H20.2502ZM21.625 16.5H2.375V3.61453L11.4083 11.8953C11.5697 12.0435 11.7809 12.1257 12 12.1257C12.2191 12.1257 12.4303 12.0435 12.5917 11.8953L21.625 3.61453V16.5Z" fill="#878787"/>
</svg>
