<svg width="24" height="23" viewBox="0 0 24 23" fill="none" xmlns="http://www.w3.org/2000/svg">
<path d="M12 0.125C9.75024 0.125 7.551 0.792132 5.68039 2.04203C3.80978 3.29193 2.35182 5.06847 1.49088 7.14698C0.629929 9.22548 0.404666 11.5126 0.843573 13.7192C1.28248 15.9257 2.36584 17.9525 3.95667 19.5433C5.54749 21.1342 7.57432 22.2175 9.78085 22.6564C11.9874 23.0953 14.2745 22.8701 16.353 22.0091C18.4315 21.1482 20.2081 19.6902 21.458 17.8196C22.7079 15.949 23.375 13.7498 23.375 11.5C23.3718 8.48414 22.1724 5.59271 20.0398 3.46018C17.9073 1.32764 15.0159 0.128185 12 0.125ZM21.5845 10.625H17.2281C17.0739 7.51219 16.1048 4.55797 14.4806 2.20312C16.3829 2.71383 18.0832 3.79458 19.3532 5.30013C20.6231 6.80567 21.4018 8.66387 21.5845 10.625ZM12 21.113C9.95141 18.8959 8.70891 15.7536 8.52516 12.375H15.4748C15.2911 15.7514 14.0486 18.8959 12 21.113ZM8.52516 10.625C8.70891 7.24859 9.94704 4.10406 12 1.88703C14.0486 4.10406 15.2911 7.24641 15.4748 10.625H8.52516ZM9.51938 2.20312C7.89516 4.55797 6.9261 7.51219 6.77188 10.625H2.41547C2.59822 8.66387 3.37689 6.80567 4.64683 5.30013C5.91677 3.79458 7.61712 2.71383 9.51938 2.20312ZM2.41547 12.375H6.77188C6.9261 15.4878 7.89516 18.442 9.51938 20.7969C7.61712 20.2862 5.91677 19.2054 4.64683 17.6999C3.37689 16.1943 2.59822 14.3361 2.41547 12.375ZM14.4806 20.7969C16.1048 18.4387 17.0739 15.4845 17.2281 12.375H21.5845C21.4018 14.3361 20.6231 16.1943 19.3532 17.6999C18.0832 19.2054 16.3829 20.2862 14.4806 20.7969Z" fill="#878787"/>
</svg>
