<svg width="22" height="23" viewBox="0 0 22 23" fill="none" xmlns="http://www.w3.org/2000/svg">
<path d="M21.2594 16.7434C20.6523 15.6978 19.75 12.7392 19.75 8.875C19.75 6.55436 18.8281 4.32876 17.1872 2.68782C15.5462 1.04687 13.3206 0.125 11 0.125C8.67935 0.125 6.45376 1.04687 4.81281 2.68782C3.17187 4.32876 2.25 6.55436 2.25 8.875C2.25 12.7403 1.34656 15.6978 0.73953 16.7434C0.584513 17.0093 0.502333 17.3113 0.501277 17.619C0.50022 17.9267 0.580325 18.2293 0.733513 18.4962C0.886701 18.7631 1.10755 18.9848 1.3738 19.1391C1.64005 19.2934 1.94227 19.3748 2.25 19.375H6.71359C6.91547 20.3628 7.45234 21.2506 8.23339 21.8882C9.01445 22.5258 9.99175 22.874 11 22.874C12.0082 22.874 12.9855 22.5258 13.7666 21.8882C14.5477 21.2506 15.0845 20.3628 15.2864 19.375H19.75C20.0576 19.3746 20.3597 19.2931 20.6258 19.1387C20.8919 18.9843 21.1126 18.7625 21.2657 18.4957C21.4187 18.2288 21.4987 17.9263 21.4976 17.6187C21.4965 17.3111 21.4143 17.0092 21.2594 16.7434ZM11 21.125C10.4573 21.1248 9.928 20.9565 9.48493 20.6431C9.04187 20.3297 8.70683 19.8867 8.52594 19.375H13.4741C13.2932 19.8867 12.9581 20.3297 12.5151 20.6431C12.072 20.9565 11.5427 21.1248 11 21.125ZM2.25 17.625C3.09219 16.1769 4 12.8212 4 8.875C4 7.01848 4.7375 5.23801 6.05025 3.92525C7.36301 2.6125 9.14348 1.875 11 1.875C12.8565 1.875 14.637 2.6125 15.9497 3.92525C17.2625 5.23801 18 7.01848 18 8.875C18 12.818 18.9056 16.1736 19.75 17.625H2.25Z" fill="#878787"/>
</svg>
