<svg width="25" height="25" viewBox="0 0 25 25" fill="none" xmlns="http://www.w3.org/2000/svg">
<path d="M23.5 8.98987H18.5V3.98987C18.5 3.72465 18.3946 3.4703 18.2071 3.28276C18.0196 3.09523 17.7652 2.98987 17.5 2.98987H2.5V1.98987C2.5 1.72465 2.39464 1.4703 2.20711 1.28276C2.01957 1.09523 1.76522 0.989868 1.5 0.989868C1.23478 0.989868 0.98043 1.09523 0.792893 1.28276C0.605357 1.4703 0.5 1.72465 0.5 1.98987V23.9899C0.5 24.2551 0.605357 24.5094 0.792893 24.697C0.98043 24.8845 1.23478 24.9899 1.5 24.9899C1.76522 24.9899 2.01957 24.8845 2.20711 24.697C2.39464 24.5094 2.5 24.2551 2.5 23.9899V22.9899H13.5C13.7652 22.9899 14.0196 22.8845 14.2071 22.697C14.3946 22.5094 14.5 22.2551 14.5 21.9899V16.9899H23.5C23.7652 16.9899 24.0196 16.8845 24.2071 16.697C24.3946 16.5094 24.5 16.2551 24.5 15.9899V9.98987C24.5 9.72465 24.3946 9.4703 24.2071 9.28276C24.0196 9.09523 23.7652 8.98987 23.5 8.98987ZM16.5 4.98987V8.98987H2.5V4.98987H16.5ZM12.5 20.9899H2.5V16.9899H12.5V20.9899ZM22.5 14.9899H2.5V10.9899H22.5V14.9899Z" fill="#878787"/>
</svg>
