<svg width="29" height="25" viewBox="0 0 29 25" fill="none" xmlns="http://www.w3.org/2000/svg">
<path d="M15.5 12.9899V19.9899C15.5 20.2551 15.3947 20.5094 15.2071 20.697C15.0196 20.8845 14.7653 20.9899 14.5 20.9899C14.2348 20.9899 13.9805 20.8845 13.7929 20.697C13.6054 20.5094 13.5 20.2551 13.5 19.9899V12.9899C13.5 12.7246 13.6054 12.4703 13.7929 12.2828C13.9805 12.0952 14.2348 11.9899 14.5 11.9899C14.7653 11.9899 15.0196 12.0952 15.2071 12.2828C15.3947 12.4703 15.5 12.7246 15.5 12.9899ZM28.4825 10.2536L26.75 23.2549C26.6858 23.7354 26.4492 24.1762 26.0843 24.4953C25.7195 24.8145 25.2511 24.9902 24.7663 24.9899H4.23379C3.74902 24.9902 3.28063 24.8145 2.91573 24.4953C2.55084 24.1762 2.31427 23.7354 2.25004 23.2549L0.516291 10.2549C0.47851 9.97224 0.5016 9.6848 0.584012 9.41182C0.666424 9.13885 0.806253 8.88665 0.994122 8.67215C1.18199 8.45765 1.41355 8.28579 1.67328 8.16812C1.93301 8.05044 2.2149 7.98967 2.50004 7.98987H7.04629L13.75 0.331116C13.8439 0.224709 13.9593 0.139489 14.0886 0.0811157C14.2179 0.0227428 14.3582 -0.00744629 14.5 -0.00744629C14.6419 -0.00744629 14.7822 0.0227428 14.9115 0.0811157C15.0408 0.139489 15.1562 0.224709 15.25 0.331116L21.9538 7.98987H26.5C26.7849 7.99005 27.0663 8.05106 27.3257 8.16882C27.585 8.28657 27.8162 8.45836 28.0038 8.67268C28.1913 8.887 28.331 9.13891 28.4133 9.41156C28.4957 9.6842 28.5189 9.97129 28.4813 10.2536H28.4825ZM9.70379 7.98987H19.2963L14.5 2.50862L9.70379 7.98987ZM26.5 9.98987H2.50004L4.23379 22.9899H24.7663L26.5 9.98987ZM20.105 12.8899L19.405 19.8899C19.3912 20.0209 19.4034 20.1534 19.441 20.2797C19.4785 20.4061 19.5407 20.5237 19.6238 20.6259C19.707 20.7282 19.8096 20.8129 19.9256 20.8754C20.0417 20.9379 20.1689 20.9768 20.3 20.9899C20.3338 20.9917 20.3676 20.9917 20.4013 20.9899C20.649 20.9896 20.8877 20.8973 21.0713 20.7311C21.2549 20.5648 21.3703 20.3363 21.395 20.0899L22.095 13.0899C22.1216 12.826 22.0422 12.5624 21.8743 12.357C21.7065 12.1517 21.4639 12.0214 21.2 11.9949C20.9362 11.9683 20.6725 12.0477 20.4672 12.2156C20.2618 12.3834 20.1316 12.626 20.105 12.8899ZM8.89504 12.8899C8.86852 12.626 8.73826 12.3834 8.5329 12.2156C8.32755 12.0477 8.06393 11.9683 7.80004 11.9949C7.53615 12.0214 7.2936 12.1517 7.12576 12.357C6.95791 12.5624 6.87852 12.826 6.90504 13.0899L7.60504 20.0899C7.62991 20.3374 7.74616 20.5668 7.93107 20.7332C8.11597 20.8996 8.35627 20.9911 8.60504 20.9899C8.63877 20.9917 8.67257 20.9917 8.70629 20.9899C8.83696 20.9767 8.96376 20.938 9.07945 20.8759C9.19515 20.8137 9.29747 20.7294 9.38058 20.6277C9.46369 20.526 9.52595 20.409 9.56382 20.2833C9.60169 20.1575 9.61443 20.0255 9.60129 19.8949L8.89504 12.8899Z" fill="#878787"/>
</svg>
