<svg width="27" height="23" viewBox="0 0 27 23" fill="none" xmlns="http://www.w3.org/2000/svg">
<path d="M26.5 21.9899C26.5 22.2551 26.3946 22.5094 26.2071 22.697C26.0196 22.8845 25.7652 22.9899 25.5 22.9899H1.5C1.23478 22.9899 0.98043 22.8845 0.792893 22.697C0.605357 22.5094 0.5 22.2551 0.5 21.9899V1.98987C0.5 1.72465 0.605357 1.4703 0.792893 1.28276C0.98043 1.09523 1.23478 0.989868 1.5 0.989868C1.76522 0.989868 2.01957 1.09523 2.20711 1.28276C2.39464 1.4703 2.5 1.72465 2.5 1.98987V15.5761L8.7925 9.28237C8.88537 9.18939 8.99566 9.11563 9.11706 9.06531C9.23846 9.01498 9.36858 8.98908 9.5 8.98908C9.63142 8.98908 9.76154 9.01498 9.88294 9.06531C10.0043 9.11563 10.1146 9.18939 10.2075 9.28237L13.5 12.5761L20.0863 5.98987H17.5C17.2348 5.98987 16.9804 5.88451 16.7929 5.69697C16.6054 5.50944 16.5 5.25508 16.5 4.98987C16.5 4.72465 16.6054 4.4703 16.7929 4.28276C16.9804 4.09523 17.2348 3.98987 17.5 3.98987H22.5C22.7652 3.98987 23.0196 4.09523 23.2071 4.28276C23.3946 4.4703 23.5 4.72465 23.5 4.98987V9.98987C23.5 10.2551 23.3946 10.5094 23.2071 10.697C23.0196 10.8845 22.7652 10.9899 22.5 10.9899C22.2348 10.9899 21.9804 10.8845 21.7929 10.697C21.6054 10.5094 21.5 10.2551 21.5 9.98987V7.40362L14.2075 14.6974C14.1146 14.7903 14.0043 14.8641 13.8829 14.9144C13.7615 14.9648 13.6314 14.9907 13.5 14.9907C13.3686 14.9907 13.2385 14.9648 13.1171 14.9144C12.9957 14.8641 12.8854 14.7903 12.7925 14.6974L9.5 11.4036L2.5 18.4036V20.9899H25.5C25.7652 20.9899 26.0196 21.0952 26.2071 21.2828C26.3946 21.4703 26.5 21.7247 26.5 21.9899Z" fill="#878787"/>
</svg>
