<svg width="23" height="27" viewBox="0 0 23 27" fill="none" xmlns="http://www.w3.org/2000/svg">
<path d="M16.5 16.9899C16.5 17.2551 16.3946 17.5094 16.2071 17.697C16.0196 17.8845 15.7652 17.9899 15.5 17.9899H7.5C7.23478 17.9899 6.98043 17.8845 6.79289 17.697C6.60536 17.5094 6.5 17.2551 6.5 16.9899C6.5 16.7247 6.60536 16.4703 6.79289 16.2828C6.98043 16.0952 7.23478 15.9899 7.5 15.9899H15.5C15.7652 15.9899 16.0196 16.0952 16.2071 16.2828C16.3946 16.4703 16.5 16.7247 16.5 16.9899ZM15.5 11.9899H7.5C7.23478 11.9899 6.98043 12.0952 6.79289 12.2828C6.60536 12.4703 6.5 12.7247 6.5 12.9899C6.5 13.2551 6.60536 13.5094 6.79289 13.697C6.98043 13.8845 7.23478 13.9899 7.5 13.9899H15.5C15.7652 13.9899 16.0196 13.8845 16.2071 13.697C16.3946 13.5094 16.5 13.2551 16.5 12.9899C16.5 12.7247 16.3946 12.4703 16.2071 12.2828C16.0196 12.0952 15.7652 11.9899 15.5 11.9899ZM22.5 3.98987V24.9899C22.5 25.5203 22.2893 26.029 21.9142 26.4041C21.5391 26.7792 21.0304 26.9899 20.5 26.9899H2.5C1.96957 26.9899 1.46086 26.7792 1.08579 26.4041C0.710714 26.029 0.5 25.5203 0.5 24.9899V3.98987C0.5 3.45944 0.710714 2.95073 1.08579 2.57566C1.46086 2.20058 1.96957 1.98987 2.5 1.98987H7.0325C7.59438 1.36078 8.28279 0.857442 9.05266 0.512818C9.82254 0.168194 10.6565 -0.00994873 11.5 -0.00994873C12.3435 -0.00994873 13.1775 0.168194 13.9473 0.512818C14.7172 0.857442 15.4056 1.36078 15.9675 1.98987H20.5C21.0304 1.98987 21.5391 2.20058 21.9142 2.57566C22.2893 2.95073 22.5 3.45944 22.5 3.98987ZM7.5 5.98987H15.5C15.5 4.929 15.0786 3.91159 14.3284 3.16144C13.5783 2.4113 12.5609 1.98987 11.5 1.98987C10.4391 1.98987 9.42172 2.4113 8.67157 3.16144C7.92143 3.91159 7.5 4.929 7.5 5.98987ZM20.5 3.98987H17.1562C17.3837 4.63214 17.5 5.30851 17.5 5.98987V6.98987C17.5 7.25509 17.3946 7.50944 17.2071 7.69698C17.0196 7.88451 16.7652 7.98987 16.5 7.98987H6.5C6.23478 7.98987 5.98043 7.88451 5.79289 7.69698C5.60536 7.50944 5.5 7.25509 5.5 6.98987V5.98987C5.50002 5.30851 5.61627 4.63214 5.84375 3.98987H2.5V24.9899H20.5V3.98987Z" fill="#878787"/>
</svg>
