<svg width="23" height="23" viewBox="0 0 23 23" fill="none" xmlns="http://www.w3.org/2000/svg">
<path d="M21.2076 3.69487L3.20755 21.6949C3.01991 21.8825 2.76541 21.9879 2.50005 21.9879C2.23468 21.9879 1.98019 21.8825 1.79255 21.6949C1.60491 21.5072 1.49949 21.2527 1.49949 20.9874C1.49949 20.722 1.60491 20.4675 1.79255 20.2799L19.7925 2.27987C19.98 2.09223 20.2344 1.98675 20.4996 1.98663C20.7649 1.98651 21.0193 2.09177 21.2069 2.27924C21.3946 2.46672 21.5 2.72106 21.5002 2.9863C21.5003 3.25155 21.395 3.50598 21.2076 3.69362V3.69487ZM1.81755 8.66987C0.973663 7.82582 0.499639 6.6811 0.499756 5.48755C0.499873 4.294 0.974122 3.14938 1.81817 2.30549C2.66222 1.46161 3.80694 0.987584 5.00049 0.987701C6.19404 0.987819 7.33866 1.46207 8.18255 2.30612C9.02643 3.15017 9.50046 4.29488 9.50034 5.48844C9.50022 6.68199 9.02598 7.82661 8.18192 8.67049C7.33787 9.51438 6.19316 9.9884 4.99961 9.98829C3.80606 9.98817 2.66143 9.51392 1.81755 8.66987ZM2.50005 5.48987C2.50037 5.90093 2.60205 6.30557 2.79608 6.66795C2.99011 7.03034 3.2705 7.33929 3.61243 7.56745C3.95436 7.79561 4.34727 7.93593 4.75637 7.976C5.16547 8.01606 5.57814 7.95464 5.95784 7.79715C6.33754 7.63967 6.67254 7.39099 6.93319 7.07313C7.19384 6.75528 7.37209 6.37806 7.45216 5.97487C7.53223 5.57168 7.51165 5.15497 7.39223 4.76164C7.27282 4.36831 7.05826 4.01049 6.76755 3.71987C6.41777 3.37019 5.97213 3.13213 5.48701 3.03579C5.0019 2.93945 4.49911 2.98917 4.04226 3.17865C3.58541 3.36814 3.19502 3.68887 2.9205 4.10028C2.64598 4.51169 2.49966 4.99528 2.50005 5.48987ZM22.5 18.4899C22.4998 19.531 22.1386 20.5398 21.478 21.3444C20.8173 22.149 19.8981 22.6997 18.877 22.9026C17.8559 23.1054 16.796 22.948 15.8779 22.457C14.9599 21.9661 14.2405 21.172 13.8423 20.2101C13.444 19.2482 13.3917 18.1779 13.6941 17.1817C13.9965 16.1855 14.6349 15.325 15.5007 14.7468C16.3664 14.1685 17.4058 13.9084 18.4419 14.0106C19.478 14.1128 20.4465 14.5711 21.1826 15.3074C21.6017 15.7243 21.934 16.2203 22.1601 16.7666C22.3863 17.3129 22.5018 17.8986 22.5 18.4899ZM20.5 18.4899C20.5002 17.9115 20.2997 17.3509 19.9329 16.9038C19.5661 16.4566 19.0555 16.1504 18.4883 16.0375C17.921 15.9245 17.3321 16.0118 16.822 16.2843C16.3118 16.5569 15.912 16.9979 15.6905 17.5322C15.4691 18.0665 15.4398 18.6611 15.6076 19.2146C15.7754 19.7681 16.1299 20.2464 16.6108 20.5678C17.0916 20.8892 17.6691 21.0339 18.2447 20.9773C18.8203 20.9207 19.3585 20.6663 19.7675 20.2574C20.0004 20.0258 20.1851 19.7504 20.3108 19.447C20.4366 19.1436 20.5009 18.8183 20.5 18.4899Z" fill="#878787"/>
</svg>
