<svg width="25" height="25" viewBox="0 0 25 25" fill="none" xmlns="http://www.w3.org/2000/svg">
<path d="M21.2087 20.2861C21.3954 20.4735 21.5002 20.7273 21.5002 20.9917C21.5002 21.2562 21.3954 21.51 21.2087 21.6974C21.0725 21.8311 17.8525 24.9899 12.5 24.9899C7.82625 24.9899 4.43375 22.1899 2.5 20.0086V22.9899C2.5 23.2551 2.39464 23.5094 2.20711 23.697C2.01957 23.8845 1.76522 23.9899 1.5 23.9899C1.23478 23.9899 0.98043 23.8845 0.792893 23.697C0.605357 23.5094 0.5 23.2551 0.5 22.9899V16.9899C0.5 16.7247 0.605357 16.4703 0.792893 16.2828C0.98043 16.0952 1.23478 15.9899 1.5 15.9899H7.5C7.76522 15.9899 8.01957 16.0952 8.20711 16.2828C8.39464 16.4703 8.5 16.7247 8.5 16.9899C8.5 17.2551 8.39464 17.5094 8.20711 17.697C8.01957 17.8845 7.76522 17.9899 7.5 17.9899H3.43C4.97 19.9086 8.125 22.9899 12.5 22.9899C17 22.9899 19.7675 20.3074 19.795 20.2799C19.9833 20.0933 20.2381 19.9892 20.5032 19.9903C20.7683 19.9915 21.0221 20.0979 21.2087 20.2861ZM23.5 1.98987C23.2348 1.98987 22.9804 2.09523 22.7929 2.28276C22.6054 2.4703 22.5 2.72465 22.5 2.98987V5.97112C20.5662 3.78987 17.1737 0.989868 12.5 0.989868C7.1475 0.989868 3.9275 4.14862 3.7925 4.28237C3.60453 4.46968 3.49866 4.72399 3.49819 4.98935C3.49773 5.25471 3.60269 5.5094 3.79 5.69737C3.97731 5.88534 4.23162 5.99121 4.49698 5.99167C4.76235 5.99214 5.01703 5.88718 5.205 5.69987C5.2325 5.67237 8 2.98987 12.5 2.98987C16.875 2.98987 20.03 6.07112 21.57 7.98987H17.5C17.2348 7.98987 16.9804 8.09523 16.7929 8.28276C16.6054 8.4703 16.5 8.72465 16.5 8.98987C16.5 9.25508 16.6054 9.50944 16.7929 9.69697C16.9804 9.88451 17.2348 9.98987 17.5 9.98987H23.5C23.7652 9.98987 24.0196 9.88451 24.2071 9.69697C24.3946 9.50944 24.5 9.25508 24.5 8.98987V2.98987C24.5 2.72465 24.3946 2.4703 24.2071 2.28276C24.0196 2.09523 23.7652 1.98987 23.5 1.98987Z" fill="#878787"/>
</svg>
