<svg width="28" height="28" viewBox="0 0 28 28" fill="none" xmlns="http://www.w3.org/2000/svg">
<path d="M27.2675 6.34862C27.1736 6.23629 27.0562 6.14594 26.9236 6.08395C26.791 6.02196 26.6464 5.98984 26.5 5.98987H6.335L5.72375 2.63237C5.64003 2.17154 5.39723 1.75471 5.03767 1.45455C4.67812 1.15439 4.22462 0.989936 3.75625 0.989868H1.5C1.23478 0.989868 0.98043 1.09522 0.792893 1.28276C0.605357 1.4703 0.5 1.72465 0.5 1.98987C0.5 2.25508 0.605357 2.50944 0.792893 2.69697C0.98043 2.88451 1.23478 2.98987 1.5 2.98987H3.75L6.945 20.5261C7.03911 21.0462 7.26895 21.5322 7.61125 21.9349C7.13881 22.3761 6.79781 22.9396 6.62607 23.5629C6.45433 24.1861 6.45856 24.8447 6.63829 25.4657C6.81801 26.0867 7.16622 26.6458 7.64428 27.081C8.12235 27.5161 8.7116 27.8104 9.3467 27.9311C9.98179 28.0518 10.6379 27.9943 11.2423 27.7649C11.8467 27.5355 12.3758 27.1432 12.7708 26.6315C13.1658 26.1197 13.4114 25.5086 13.4804 24.8658C13.5493 24.223 13.4388 23.5737 13.1613 22.9899H18.8388C18.615 23.4582 18.4993 23.9708 18.5 24.4899C18.5 25.1821 18.7053 25.8588 19.0899 26.4344C19.4744 27.0099 20.0211 27.4585 20.6606 27.7234C21.3001 27.9884 22.0039 28.0577 22.6828 27.9226C23.3617 27.7876 23.9854 27.4542 24.4749 26.9647C24.9644 26.4753 25.2977 25.8516 25.4327 25.1727C25.5678 24.4937 25.4985 23.79 25.2336 23.1505C24.9687 22.5109 24.5201 21.9643 23.9445 21.5797C23.3689 21.1951 22.6922 20.9899 22 20.9899H9.89625C9.66206 20.9898 9.43532 20.9076 9.25554 20.7575C9.07576 20.6075 8.95436 20.399 8.9125 20.1686L8.51625 17.9899H23.0163C23.7188 17.9898 24.3991 17.7431 24.9384 17.2929C25.4777 16.8426 25.8419 16.2174 25.9675 15.5261L27.4875 7.16862C27.5132 7.02417 27.5069 6.87582 27.4688 6.73411C27.4308 6.5924 27.3621 6.46079 27.2675 6.34862ZM11.5 24.4899C11.5 24.7865 11.412 25.0765 11.2472 25.3232C11.0824 25.5699 10.8481 25.7622 10.574 25.8757C10.2999 25.9892 9.99834 26.0189 9.70736 25.961C9.41639 25.9032 9.14912 25.7603 8.93934 25.5505C8.72956 25.3407 8.5867 25.0735 8.52882 24.7825C8.47094 24.4915 8.50065 24.1899 8.61418 23.9158C8.72771 23.6418 8.91997 23.4075 9.16665 23.2427C9.41332 23.0778 9.70333 22.9899 10 22.9899C10.3978 22.9899 10.7794 23.1479 11.0607 23.4292C11.342 23.7105 11.5 24.092 11.5 24.4899ZM23.5 24.4899C23.5 24.7865 23.412 25.0765 23.2472 25.3232C23.0824 25.5699 22.8481 25.7622 22.574 25.8757C22.2999 25.9892 21.9983 26.0189 21.7074 25.961C21.4164 25.9032 21.1491 25.7603 20.9393 25.5505C20.7296 25.3407 20.5867 25.0735 20.5288 24.7825C20.4709 24.4915 20.5007 24.1899 20.6142 23.9158C20.7277 23.6418 20.92 23.4075 21.1666 23.2427C21.4133 23.0778 21.7033 22.9899 22 22.9899C22.3978 22.9899 22.7794 23.1479 23.0607 23.4292C23.342 23.7105 23.5 24.092 23.5 24.4899ZM24 15.1686C23.958 15.3997 23.8361 15.6086 23.6555 15.7587C23.475 15.9089 23.2473 15.9907 23.0125 15.9899H8.1525L6.69875 7.98987H25.3013L24 15.1686Z" fill="#878787"/>
</svg>
